<svg xmlns="http://www.w3.org/2000/svg" xmlns:xlink="http://www.w3.org/1999/xlink" contentStyleType="text/css" height="202px" preserveAspectRatio="none" style="width:830px;height:202px;background:#FFFFFF;" version="1.1" viewBox="0 0 830 202" width="830px" zoomAndPan="magnify"><title>uova:VAR2</title><defs/><g><text fill="#888888" font-family="sans-serif" font-size="10" lengthAdjust="spacing" textLength="119.3408" x="696.6859" y="9.2822">Laboratory location: qui</text><text fill="#000000" font-family="sans-serif" font-size="14" font-weight="bold" lengthAdjust="spacing" textLength="85.9482" x="365.0392" y="35.6357">uova:VAR2</text><!--class d6edb263ac5d9eb744d3530d306c5069--><g id="elem_d6edb263ac5d9eb744d3530d306c5069"><rect codeLine="21" fill="#F1F1F1" height="138.75" id="d6edb263ac5d9eb744d3530d306c5069" rx="2.5" ry="2.5" style="stroke:#181818;stroke-width:0.5;" width="215.6309" x="607.3958" y="56.9375"/><ellipse cx="663.1986" cy="77.0703" fill="#808080" rx="11" ry="11" style="stroke:#181818;stroke-width:1.0;"/><path d="M666.1673,82.7109 Q665.5892,83.0078 664.9486,83.1484 Q664.3079,83.3047 663.6048,83.3047 Q661.1048,83.3047 659.7767,81.6641 Q658.4642,80.0078 658.4642,76.8828 Q658.4642,73.7578 659.7767,72.1016 Q661.1048,70.4453 663.6048,70.4453 Q664.3079,70.4453 664.9486,70.6016 Q665.6048,70.7578 666.1673,71.0547 L666.1673,73.7734 Q665.5423,73.1953 664.9486,72.9297 Q664.3548,72.6484 663.7298,72.6484 Q662.3861,72.6484 661.6986,73.7266 Q661.0111,74.7891 661.0111,76.8828 Q661.0111,78.9766 661.6986,80.0547 Q662.3861,81.1172 663.7298,81.1172 Q664.3548,81.1172 664.9486,80.8516 Q665.5423,80.5703 666.1673,79.9922 L666.1673,82.7109 Z " fill="#000000"/><text fill="#000000" font-family="sans-serif" font-size="12" font-style="italic" lengthAdjust="spacing" textLength="48.75" x="707.0863" y="73.0762">&#171;Cable&#187;</text><text fill="#000000" font-family="sans-serif" font-size="14" font-weight="bold" lengthAdjust="spacing" textLength="95.5254" x="683.6986" y="88.9014">democable1</text><line style="stroke:#181818;stroke-width:0.5;" x1="608.3958" x2="822.0267" y1="97.2031" y2="97.2031"/><text fill="#000000" font-family="sans-serif" font-size="14" lengthAdjust="spacing" textLength="77.8408" x="613.3958" y="114.1982">description</text><text fill="#000000" font-family="sans-serif" font-size="14" font-weight="bold" lengthAdjust="spacing" textLength="99.1211" x="622.2698" y="136.4951">Part number</text><text fill="#000000" font-family="sans-serif" font-size="14" lengthAdjust="spacing" textLength="14.6563" x="760.4993" y="136.4951">HI</text><text fill="#000000" font-family="sans-serif" font-size="14" font-weight="bold" lengthAdjust="spacing" textLength="111.3438" x="622.2698" y="152.792">Serial number</text><text fill="#000000" font-family="sans-serif" font-size="14" lengthAdjust="spacing" textLength="24.7666" x="760.4993" y="152.792">N/A</text><text fill="#000000" font-family="sans-serif" font-size="14" font-weight="bold" lengthAdjust="spacing" textLength="128.9053" x="622.2698" y="169.0889">Connection type</text><text fill="#000000" font-family="sans-serif" font-size="14" lengthAdjust="spacing" textLength="48.0771" x="760.4993" y="169.0889">DATAX</text><line style="stroke:#000000;stroke-width:1.0;" x1="617.3958" x2="813.0267" y1="123.5" y2="123.5"/><line style="stroke:#000000;stroke-width:1.0;" x1="617.3958" x2="813.0267" y1="139.7969" y2="139.7969"/><line style="stroke:#000000;stroke-width:1.0;" x1="617.3958" x2="813.0267" y1="156.0938" y2="156.0938"/><line style="stroke:#000000;stroke-width:1.0;" x1="617.3958" x2="813.0267" y1="172.3906" y2="172.3906"/><line style="stroke:#000000;stroke-width:1.0;" x1="617.3958" x2="617.3958" y1="123.5" y2="172.3906"/><line style="stroke:#000000;stroke-width:1.0;" x1="756.0491" x2="756.0491" y1="123.5" y2="172.3906"/><line style="stroke:#000000;stroke-width:1.0;" x1="813.0267" x2="813.0267" y1="123.5" y2="172.3906"/><text fill="#000000" font-family="sans-serif" font-size="14" lengthAdjust="spacing" textLength="4.4502" x="613.3958" y="192.3857">&#160;</text></g><!--class e3a1cf954cdcfbb6b30a561e82666a40--><g id="elem_e3a1cf954cdcfbb6b30a561e82666a40"><rect codeLine="33" fill="#F1F1F1" height="122.4531" id="e3a1cf954cdcfbb6b30a561e82666a40" rx="2.5" ry="2.5" style="stroke:#181818;stroke-width:0.5;" width="174.7588" x="90.8358" y="65.0875"/><ellipse cx="120.9543" cy="85.2203" fill="#008000" rx="11" ry="11" style="stroke:#181818;stroke-width:1.0;"/><path d="M116.8762,80.9859 L116.8762,78.8297 L124.2668,78.8297 L124.2668,80.9859 L121.7981,80.9859 L121.7981,89.0641 L124.2668,89.0641 L124.2668,91.2203 L116.8762,91.2203 L116.8762,89.0641 L119.345,89.0641 L119.345,80.9859 L116.8762,80.9859 Z " fill="#000000"/><text fill="#000000" font-family="sans-serif" font-size="12" font-style="italic" lengthAdjust="spacing" textLength="113.1621" x="136.314" y="81.2262">&#171;DlabMaginInstr2&#187;</text><text fill="#000000" font-family="sans-serif" font-size="14" font-weight="bold" lengthAdjust="spacing" textLength="33.25" x="176.27" y="97.0514">Ins2</text><line style="stroke:#181818;stroke-width:0.5;" x1="91.8358" x2="264.5946" y1="105.3531" y2="105.3531"/><text fill="#000000" font-family="sans-serif" font-size="14" lengthAdjust="spacing" textLength="77.8408" x="96.8358" y="122.3482">description</text><text fill="#000000" font-family="sans-serif" font-size="14" font-weight="bold" lengthAdjust="spacing" textLength="99.1211" x="105.7098" y="144.6451">Part number</text><text fill="#000000" font-family="sans-serif" font-size="14" lengthAdjust="spacing" textLength="21.5469" x="226.3778" y="144.6451">HO</text><text fill="#000000" font-family="sans-serif" font-size="14" font-weight="bold" lengthAdjust="spacing" textLength="111.3438" x="105.7098" y="160.942">Serial number</text><text fill="#000000" font-family="sans-serif" font-size="14" lengthAdjust="spacing" textLength="24.7666" x="226.3778" y="160.942">N/A</text><line style="stroke:#000000;stroke-width:1.0;" x1="100.8358" x2="255.5946" y1="131.65" y2="131.65"/><line style="stroke:#000000;stroke-width:1.0;" x1="100.8358" x2="255.5946" y1="147.9469" y2="147.9469"/><line style="stroke:#000000;stroke-width:1.0;" x1="100.8358" x2="255.5946" y1="164.2438" y2="164.2438"/><line style="stroke:#000000;stroke-width:1.0;" x1="100.8358" x2="100.8358" y1="131.65" y2="164.2438"/><line style="stroke:#000000;stroke-width:1.0;" x1="221.9276" x2="221.9276" y1="131.65" y2="164.2438"/><line style="stroke:#000000;stroke-width:1.0;" x1="255.5946" x2="255.5946" y1="131.65" y2="164.2438"/><text fill="#000000" font-family="sans-serif" font-size="14" lengthAdjust="spacing" textLength="4.4502" x="96.8358" y="184.2389">&#160;</text></g><!--entity 8d0523f03508340d2893719fe32d9740--><g id="elem_8d0523f03508340d2893719fe32d9740"><ellipse cx="32.2158" cy="126.3175" fill="#F1F1F1" rx="8" ry="8" style="stroke:#181818;stroke-width:0.5;"/><text fill="#000000" font-family="sans-serif" font-size="14" font-weight="bold" lengthAdjust="spacing" textLength="39.0742" x="6" y="156.3126">Port:</text><text fill="#000000" font-family="sans-serif" font-size="14" lengthAdjust="spacing" textLength="8.9072" x="49.5244" y="156.3126">8</text></g><!--class 0e92cea08982d46c75a5e21fa43174c9--><g id="elem_0e92cea08982d46c75a5e21fa43174c9"><rect codeLine="47" fill="#F1F1F1" height="122.4531" id="0e92cea08982d46c75a5e21fa43174c9" rx="2.5" ry="2.5" style="stroke:#181818;stroke-width:0.5;" width="174.7588" x="382.8358" y="65.0875"/><ellipse cx="406.6183" cy="85.2203" fill="#008000" rx="11" ry="11" style="stroke:#181818;stroke-width:1.0;"/><path d="M402.5402,80.9859 L402.5402,78.8297 L409.9308,78.8297 L409.9308,80.9859 L407.462,80.9859 L407.462,89.0641 L409.9308,89.0641 L409.9308,91.2203 L402.5402,91.2203 L402.5402,89.0641 L405.0089,89.0641 L405.0089,80.9859 L402.5402,80.9859 Z " fill="#000000"/><text fill="#000000" font-family="sans-serif" font-size="12" font-style="italic" lengthAdjust="spacing" textLength="127.2422" x="420.57" y="81.2262">&#171;GenericInstrument&#187;</text><text fill="#000000" font-family="sans-serif" font-size="14" font-weight="bold" lengthAdjust="spacing" textLength="33.25" x="467.566" y="97.0514">Ins1</text><line style="stroke:#181818;stroke-width:0.5;" x1="383.8358" x2="556.5946" y1="105.3531" y2="105.3531"/><text fill="#000000" font-family="sans-serif" font-size="14" lengthAdjust="spacing" textLength="77.8408" x="388.8358" y="122.3482">description</text><text fill="#000000" font-family="sans-serif" font-size="14" font-weight="bold" lengthAdjust="spacing" textLength="99.1211" x="397.7098" y="144.6451">Part number</text><text fill="#000000" font-family="sans-serif" font-size="14" lengthAdjust="spacing" textLength="19.373" x="518.3778" y="144.6451">HE</text><text fill="#000000" font-family="sans-serif" font-size="14" font-weight="bold" lengthAdjust="spacing" textLength="111.3438" x="397.7098" y="160.942">Serial number</text><text fill="#000000" font-family="sans-serif" font-size="14" lengthAdjust="spacing" textLength="24.7666" x="518.3778" y="160.942">N/A</text><line style="stroke:#000000;stroke-width:1.0;" x1="392.8358" x2="547.5946" y1="131.65" y2="131.65"/><line style="stroke:#000000;stroke-width:1.0;" x1="392.8358" x2="547.5946" y1="147.9469" y2="147.9469"/><line style="stroke:#000000;stroke-width:1.0;" x1="392.8358" x2="547.5946" y1="164.2438" y2="164.2438"/><line style="stroke:#000000;stroke-width:1.0;" x1="392.8358" x2="392.8358" y1="131.65" y2="164.2438"/><line style="stroke:#000000;stroke-width:1.0;" x1="513.9276" x2="513.9276" y1="131.65" y2="164.2438"/><line style="stroke:#000000;stroke-width:1.0;" x1="547.5946" x2="547.5946" y1="131.65" y2="164.2438"/><text fill="#000000" font-family="sans-serif" font-size="14" lengthAdjust="spacing" textLength="4.4502" x="388.8358" y="184.2389">&#160;</text></g><!--entity a24b30a9720b10322a011e8c8ebc65e7--><g id="elem_a24b30a9720b10322a011e8c8ebc65e7"><ellipse cx="324.2158" cy="126.3175" fill="#F1F1F1" rx="8" ry="8" style="stroke:#181818;stroke-width:0.5;"/><text fill="#000000" font-family="sans-serif" font-size="14" font-weight="bold" lengthAdjust="spacing" textLength="39.0742" x="298" y="156.3126">Port:</text><text fill="#000000" font-family="sans-serif" font-size="14" lengthAdjust="spacing" textLength="8.9072" x="341.5244" y="156.3126">9</text></g><!--link 8d0523f03508340d2893719fe32d9740 to e3a1cf954cdcfbb6b30a561e82666a40--><g id="link_8d0523f03508340d2893719fe32d9740_e3a1cf954cdcfbb6b30a561e82666a40"><path codeLine="42" d="M41.3458,126.6875 C51.8958,126.6875 70.3958,126.6875 90.4458,126.6875 " fill="none" id="8d0523f03508340d2893719fe32d9740-e3a1cf954cdcfbb6b30a561e82666a40" style="stroke:#181818;stroke-width:1.0;stroke-dasharray:7.0,7.0;"/></g><!--link a24b30a9720b10322a011e8c8ebc65e7 to 0e92cea08982d46c75a5e21fa43174c9--><g id="link_a24b30a9720b10322a011e8c8ebc65e7_0e92cea08982d46c75a5e21fa43174c9"><path codeLine="56" d="M333.3458,126.6875 C343.8958,126.6875 362.3958,126.6875 382.4458,126.6875 " fill="none" id="a24b30a9720b10322a011e8c8ebc65e7-0e92cea08982d46c75a5e21fa43174c9" style="stroke:#181818;stroke-width:1.0;stroke-dasharray:7.0,7.0;"/></g><!--link a24b30a9720b10322a011e8c8ebc65e7 to d6edb263ac5d9eb744d3530d306c5069--><g id="link_a24b30a9720b10322a011e8c8ebc65e7_d6edb263ac5d9eb744d3530d306c5069"><path codeLine="62" d="M324.2158,117.0575 C324.2158,99.1875 324.2158,61.6875 324.2158,61.6875 C324.2158,61.6875 491.3558,61.6875 607.0758,61.6875 " fill="none" id="a24b30a9720b10322a011e8c8ebc65e7-d6edb263ac5d9eb744d3530d306c5069" style="stroke:#181818;stroke-width:1.0;"/></g><!--link d6edb263ac5d9eb744d3530d306c5069 to 8d0523f03508340d2893719fe32d9740--><g id="link_d6edb263ac5d9eb744d3530d306c5069_8d0523f03508340d2893719fe32d9740"><path codeLine="63" d="M606.9958,191.6875 C414.4058,191.6875 32.2158,191.6875 32.2158,191.6875 C32.2158,191.6875 32.2158,153.7575 32.2158,135.6775 " fill="none" id="d6edb263ac5d9eb744d3530d306c5069-8d0523f03508340d2893719fe32d9740" style="stroke:#181818;stroke-width:1.0;"/></g><!--SRC=[dPFRZjCm48Rl_HHMRvQjMDMnSwn2fQg5Ked3YaK82N4njgTjrDGfZhDGKTuT9mMsI6XJSH75dh4dt_zFvkhE7KeaUTs-9eJaez-hgpcke2aThT4rUx91q6ZfAv2L1LVP0oqh1Qwep9X-QGhY2bSYRQfx67-OlkC4ohBwkYk-5MPDwcrXzc1XHyl2e3liaLRMRQgpXAaqrhYd4JiBMZ3RNq7Fix1Liw_RrGkBI0k7ExzprHhTnfDz9wg4kgQ3N4uqxZoSB378Ht8oe51J7QEMF1QW8fsXJC9GYqWmBLYi8XPdDC_fazdJXSN3DPsrToSJNzDJALliMvta-8pUWdNKD3lfFtYaBvVqs4Rlq1PGFiJVZAQdnAmo1bLxcNQgZtG-VJ_zw9Fa1-cUV-8lJSt_WAE0GAsoA5HQhQICfM0GnG6cF8vZ25a7lcp1qLpJUGdoDQmBusiuoo_GyFOn3HscAgpolHqCXxU-RUFXaAOTMQfPnCMAYOYb8cIQfvb8Wco5Wkii2HdfEq1lFcceDwW_zwfyrAo7BZFCk49WQPPo7SOgYI127gmW544IgknlinPel6hLMTNiqBWBx7h-7tPb7Hlmi5ML9Pp9W0dEWGLUe4fHgZZ2XFGTEBEhJ-U9v3GeVkQszGN5UqU4zCxGJUy_yHC0]--></g></svg>